<svg width="1600" height="920" viewBox="0 0 1600 920" fill="none" xmlns="http://www.w3.org/2000/svg">
  <defs>
    <marker id="arrow" markerWidth="10" markerHeight="10" refX="9" refY="5" orient="auto" markerUnits="strokeWidth">
      <path d="M0 0L10 5L0 10" fill="#7A7A8C"/>
    </marker>
    <style>
      .title { font: 700 30px 'Inter', 'Segoe UI', Arial, sans-serif; fill: #1F2430; }
      .subtitle { font: 600 16px 'Inter', 'Segoe UI', Arial, sans-serif; fill: #3D4757; }
      .label { font: 600 15px 'Inter', 'Segoe UI', Arial, sans-serif; fill: #253244; }
      .small { font: 500 13px 'Inter', 'Segoe UI', Arial, sans-serif; fill: #526071; }
      .chip { font: 600 13px 'Inter', 'Segoe UI', Arial, sans-serif; fill: #1C3850; }
    </style>
  </defs>

  <rect width="1600" height="920" rx="24" fill="#FAFBFD"/>
  <text x="64" y="62" class="title">dx12_Graphics AI 작업 구조</text>
  <text x="64" y="92" class="small">현재 저장소 기준: AI Review + AI Orchestration MVP + 조건부 비용 최적화</text>

  <rect x="56" y="130" width="260" height="190" rx="18" fill="#FFF6E4" stroke="#E0BE72" stroke-width="2"/>
  <text x="80" y="164" class="subtitle">개발 흐름</text>
  <rect x="80" y="190" width="212" height="48" rx="12" fill="#FFFFFF" stroke="#D8B368" stroke-width="2"/>
  <text x="106" y="221" class="label">feature 브랜치 작업</text>
  <rect x="80" y="256" width="212" height="48" rx="12" fill="#FFFFFF" stroke="#D8B368" stroke-width="2"/>
  <text x="118" y="287" class="label">develop 대상 PR</text>

  <rect x="384" y="130" width="360" height="190" rx="18" fill="#EEF7FF" stroke="#78AFDC" stroke-width="2"/>
  <text x="408" y="164" class="subtitle">기존 AI 리뷰</text>
  <rect x="408" y="190" width="148" height="56" rx="12" fill="#FFFFFF" stroke="#63A0D6" stroke-width="2"/>
  <text x="448" y="224" class="label">AI Review</text>
  <rect x="588" y="190" width="132" height="56" rx="12" fill="#FFFFFF" stroke="#63A0D6" stroke-width="2"/>
  <text x="618" y="216" class="label">PR comment</text>
  <text x="633" y="234" class="small">+ Slack</text>
  <rect x="408" y="262" width="312" height="34" rx="17" fill="#DFF0FF"/>
  <text x="453" y="284" class="chip">빠른 1차 리뷰와 알림 담당</text>

  <rect x="56" y="360" width="1060" height="332" rx="20" fill="#F4F0FF" stroke="#9A86E8" stroke-width="2"/>
  <text x="80" y="394" class="subtitle">AI 오케스트레이션</text>

  <rect x="84" y="432" width="148" height="56" rx="12" fill="#FFFFFF" stroke="#8D78E0" stroke-width="2"/>
  <text x="112" y="466" class="label">컨텍스트 수집</text>

  <rect x="268" y="432" width="182" height="56" rx="12" fill="#FFFFFF" stroke="#8D78E0" stroke-width="2"/>
  <text x="295" y="466" class="label">조건부 실행 계획 계산</text>

  <polygon points="520,392 590,462 520,532 450,462" fill="#FFFFFF" stroke="#7D68D9" stroke-width="2"/>
  <text x="487" y="454" class="label">DX12</text>
  <text x="470" y="474" class="small">specialist 필요?</text>

  <rect x="660" y="390" width="180" height="56" rx="12" fill="#FFFFFF" stroke="#64B07C" stroke-width="2"/>
  <text x="700" y="424" class="label">DX12 specialist</text>
  <rect x="660" y="478" width="180" height="56" rx="12" fill="#FFFFFF" stroke="#64B07C" stroke-width="2"/>
  <text x="690" y="512" class="label">regression specialist</text>

  <rect x="660" y="566" width="180" height="56" rx="12" fill="#FFFFFF" stroke="#D3A96A" stroke-width="2"/>
  <text x="687" y="600" class="label">DX12 specialist skip</text>

  <polygon points="940,392 1010,462 940,532 870,462" fill="#FFFFFF" stroke="#7D68D9" stroke-width="2"/>
  <text x="906" y="454" class="label">moderator</text>
  <text x="907" y="474" class="small">필요?</text>

  <rect x="1080" y="392" width="236" height="56" rx="12" fill="#FFFFFF" stroke="#6D7BFF" stroke-width="2"/>
  <text x="1144" y="426" class="label">OpenAI moderator</text>
  <rect x="1080" y="478" width="236" height="56" rx="12" fill="#FFFFFF" stroke="#6D7BFF" stroke-width="2"/>
  <text x="1135" y="512" class="label">deterministic merge</text>

  <rect x="1080" y="566" width="236" height="92" rx="14" fill="#EEF6FF" stroke="#7BAEDB" stroke-width="2"/>
  <text x="1110" y="600" class="label">moderator 승격 조건</text>
  <text x="1110" y="626" class="small">- findings 존재</text>
  <text x="1110" y="646" class="small">- verification 이상</text>
  <text x="1110" y="666" class="small">- partial diff</text>

  <rect x="1160" y="130" width="384" height="240" rx="18" fill="#FFF0F8" stroke="#D58AB4" stroke-width="2"/>
  <text x="1184" y="164" class="subtitle">검증 / 결과</text>
  <rect x="1184" y="194" width="160" height="56" rx="12" fill="#FFFFFF" stroke="#CF78A9" stroke-width="2"/>
  <text x="1209" y="228" class="label">Debug / Release</text>
  <text x="1243" y="246" class="small">x64 verification</text>
  <polygon points="1400,182 1470,222 1400,262 1330,222" fill="#FFFFFF" stroke="#C96AA1" stroke-width="2"/>
  <text x="1368" y="218" class="label">human gate</text>
  <text x="1389" y="238" class="small">필요?</text>
  <rect x="1184" y="286" width="148" height="56" rx="12" fill="#FFFFFF" stroke="#5C9DD2" stroke-width="2"/>
  <text x="1217" y="320" class="label">PR comment</text>
  <rect x="1364" y="286" width="156" height="56" rx="12" fill="#FFFFFF" stroke="#5C9DD2" stroke-width="2"/>
  <text x="1404" y="320" class="label">Slack 알림</text>
  <rect x="1184" y="352" width="336" height="64" rx="12" fill="#FFFFFF" stroke="#5C9DD2" stroke-width="2"/>
  <text x="1282" y="388" class="label">문서 / 운영 기록</text>

  <rect x="1200" y="460" width="344" height="232" rx="18" fill="#EAF7EE" stroke="#71B58B" stroke-width="2"/>
  <text x="1224" y="494" class="subtitle">현재 상태</text>
  <rect x="1224" y="524" width="296" height="42" rx="10" fill="#FFFFFF" stroke="#63A77D" stroke-width="2"/>
  <text x="1290" y="551" class="label">AI Review 자동화 운영 중</text>
  <rect x="1224" y="580" width="296" height="42" rx="10" fill="#FFFFFF" stroke="#63A77D" stroke-width="2"/>
  <text x="1265" y="607" class="label">AI Orchestration MVP 운영 중</text>
  <rect x="1224" y="636" width="296" height="42" rx="10" fill="#FFFFFF" stroke="#63A77D" stroke-width="2"/>
  <text x="1243" y="663" class="label">조건부 실행으로 비용 최적화 완료</text>

  <path d="M292 280H360V218H400" stroke="#7A7A8C" stroke-width="3" fill="none" marker-end="url(#arrow)"/>
  <path d="M292 280H360V460H84" stroke="#7A7A8C" stroke-width="3" fill="none" marker-end="url(#arrow)"/>

  <path d="M556 218H580" stroke="#7A7A8C" stroke-width="3" fill="none" marker-end="url(#arrow)"/>
  <path d="M232 460H260" stroke="#7A7A8C" stroke-width="3" fill="none" marker-end="url(#arrow)"/>
  <path d="M450 460H440" stroke="#7A7A8C" stroke-width="3" fill="none" marker-end="url(#arrow)"/>
  <path d="M590 462H650" stroke="#7A7A8C" stroke-width="3" fill="none" marker-end="url(#arrow)"/>
  <path d="M520 532V594H650" stroke="#7A7A8C" stroke-width="3" fill="none" marker-end="url(#arrow)"/>
  <path d="M590 462H650V506" stroke="#7A7A8C" stroke-width="3" fill="none" marker-end="url(#arrow)"/>
  <path d="M840 418H912" stroke="#7A7A8C" stroke-width="3" fill="none" marker-end="url(#arrow)"/>
  <path d="M840 506H912" stroke="#7A7A8C" stroke-width="3" fill="none" marker-end="url(#arrow)"/>
  <path d="M840 594H912" stroke="#7A7A8C" stroke-width="3" fill="none" marker-end="url(#arrow)"/>
  <path d="M1010 430H1070" stroke="#7A7A8C" stroke-width="3" fill="none" marker-end="url(#arrow)"/>
  <path d="M1010 494H1070" stroke="#7A7A8C" stroke-width="3" fill="none" marker-end="url(#arrow)"/>

  <path d="M1316 420H1264V250" stroke="#7A7A8C" stroke-width="3" fill="none" marker-end="url(#arrow)"/>
  <path d="M1316 506H1264V250" stroke="#7A7A8C" stroke-width="3" fill="none" marker-end="url(#arrow)"/>
  <path d="M1344 222H1330" stroke="#7A7A8C" stroke-width="3" fill="none" marker-end="url(#arrow)"/>
  <path d="M1470 222H1478V314H1364" stroke="#7A7A8C" stroke-width="3" fill="none" marker-end="url(#arrow)"/>
  <path d="M1400 262V314H1332" stroke="#7A7A8C" stroke-width="3" fill="none" marker-end="url(#arrow)"/>
  <path d="M1258 342V352" stroke="#7A7A8C" stroke-width="3" fill="none" marker-end="url(#arrow)"/>
  <path d="M1442 342V352H1360" stroke="#7A7A8C" stroke-width="3" fill="none" marker-end="url(#arrow)"/>

  <path d="M720 218H1224V524" stroke="#7A7A8C" stroke-width="3" fill="none" marker-end="url(#arrow)"/>
  <path d="M1352 416V514" stroke="#7A7A8C" stroke-width="3" fill="none" marker-end="url(#arrow)"/>
  <path d="M1352 416V570" stroke="#7A7A8C" stroke-width="3" fill="none" marker-end="url(#arrow)"/>
</svg>
